# xmcd
#
# Track frame offsets: 
#        151
#        1193
#        22098
#        40163
#        54063
#        70668
#        87855
#        100687
#        112261
#        127380
#        137786
#        154494
#        169711
#        188526
#        204022
#        225247
#        230353
#        251687
#        273108
#        289029
#        308094
#        324046
#
# Disc length: 4454 seconds
#
# Revision: 0
# Processed by: cddbd v1.5.1PL0 Copyright (c) Steve Scherf et al.
# Submitted via: ExactAudioCopy v0.95a5
#
DISCID=19116416
DTITLE=DJ Premier - Greatest Hits Pt. 2
DYEAR=1900
DGENRE=Hip-Hop Instrumentals
TTITLE0=Intro
TTITLE1=Manifest
TTITLE2=The Realness
TTITLE3=On and On
TTITLE4=My World
TTITLE5=Ya Playin Yaself
TTITLE6=Some Shit
TTITLE7=Rugged Ruff
TTITLE8=Supa Star
TTITLE9=B.Y.S.
TTITLE10=DWYCK
TTITLE11=Mass Appeal
TTITLE12=Outta Here
TTITLE13=The Question Remainz
TTITLE14=N.Y. State Of Mind
TTITLE15=Rhyme No More
TTITLE16=Come Clean
TTITLE17="P" Is Still Free
TTITLE18=Brownsville
TTITLE19=Rappaz R.N. Dainja
TTITLE20=Real Hip Hop
TTITLE21=MC's Act Like They Don't Know
EXTD=
EXTT0=
EXTT1=
EXTT2=
EXTT3=
EXTT4=
EXTT5=
EXTT6=
EXTT7=
EXTT8=
EXTT9=
EXTT10=
EXTT11=
EXTT12=
EXTT13=
EXTT14=
EXTT15=
EXTT16=
EXTT17=
EXTT18=
EXTT19=
EXTT20=
EXTT21=
PLAYORDER=
